PathFileType	4	(X/Y/Z)	22_2_7_p0_0-140_filt_butterworth.trc
DataRate	CameraRate	NumFrames	NumMarkers	Units	OrigDataRate	OrigDataStartFrame	OrigNumFrames
59.0	59.0	7	27	m	59.0	52	140
Frame#	Time	RHip			RKnee			RAnkle			RBigToe			RSmallToe			RHeel			LHip			LKnee			LAnkle			LBigToe			LSmallToe			LHeel			Neck			Head			Nose			RShoulder			RElbow			RWrist			RThumb			RIndex			RPinky			LShoulder			LElbow			LWrist			LThumb			LIndex			LPinky			
		X1	Y1	Z1	X2	Y2	Z2	X3	Y3	Z3	X4	Y4	Z4	X5	Y5	Z5	X6	Y6	Z6	X7	Y7	Z7	X8	Y8	Z8	X9	Y9	Z9	X10	Y10	Z10	X11	Y11	Z11	X12	Y12	Z12	X13	Y13	Z13	X14	Y14	Z14	X15	Y15	Z15	X16	Y16	Z16	X17	Y17	Z17	X18	Y18	Z18	X19	Y19	Z19	X20	Y20	Z20	X21	Y21	Z21	X22	Y22	Z22	X23	Y23	Z23	X24	Y24	Z24	X25	Y25	Z25	X26	Y26	Z26	X27	Y27	Z27	
52	0.8813559322033898	0.2276447783060983	0.7279843182939583	0.8798276575030038	0.24041930414972087	0.28388969141094766	0.8181267962901332	0.2712472520066367	-0.24687259267853234	0.8476194536484717	0.21344332435943061	-0.21411017116327885	0.6133150763604643	0.2875551914384527	-0.24460166598056007	0.6689686289610286	0.27916166505387546	-0.3514995245593348	0.9037157435723088	0.0032765905321440907	0.7035927176565941	0.9083422008753921	0.04667713339312675	0.23443837361581316	0.8655082600349175	0.09134291479807324	-0.2539815294015337	0.8512844067786411	0.10926059875921901	-0.23327507537580616	0.6475922266850691	0.05640860608698306	-0.2612010839714861	0.6977960273880609	0.11047429074690356	-0.3501461241214678	0.9064857593222878	0.09393502662133138	1.2305767888927206	1.0139881245994704	0.06615009184555444	1.4796700581848161	0.9588734372939556	0.06440914674002429	1.3583917122889833	0.8826617217854416	0.2430556369558399	1.1985530792447951	0.9465942025505257	0.38553324874332007	1.1363153715622407	0.7800771055844871	0.2953124394425142	1.3403957531668385	0.7461534522522706	0.23970618212259448	1.4355838933484537	0.8232858917708462	0.2701160837452089	1.488281113926355	0.7778350109814588	0.3183384789798264	1.4777844435325656	0.7076010647598816	-0.061869835287466465	1.196505845888977	0.9718665918256539	-0.2356384482637014	1.0953419030371734	0.851330630446975	-0.16996329752796013	1.3303036854361554	0.7845038066840745	-0.11137830952135519	1.4093040087607418	0.8434662932979371	-0.11943646737059996	1.4379844935989423	0.8481991877914018	-0.18512874033200366	1.4394551909119444	0.7968383747289521	
53	0.8983050847457628	0.2278335770816799	0.7269167380456163	0.8812635103151178	0.2404947259584355	0.28357104545384465	0.817417938581779	0.27120855456673665	-0.24707800344948744	0.8478752172033833	0.21268823209120738	-0.21372478852092255	0.613642424219566	0.28668760961887235	-0.24481050951166825	0.6691832674505186	0.2790769318712612	-0.3509364670019965	0.903355846220461	0.00347327875619291	0.703138554982708	0.9087746087348412	0.046738654808671086	0.2337241135948787	0.8654635617820338	0.09130548089149884	-0.2541340633585638	0.8512793071580124	0.10899786872639858	-0.2331121154058759	0.6474532437014129	0.05589961035427035	-0.26060707361984936	0.6978412628419509	0.11003742019108567	-0.34956002443605105	0.9055950526559178	0.09371385056506819	1.2309904104647131	1.012706215020375	0.06760325818391268	1.4795920292460603	0.958936559567722	0.06454540665246296	1.3584199825923837	0.882695696802279	0.24304401881757215	1.198664037826791	0.9466439691480549	0.38688751829644025	1.1262536931854958	0.782375300119144	0.2953785901042685	1.3316410877725466	0.7423394894171371	0.24027866788535157	1.4272454850243816	0.8090974527501107	0.2705375610948536	1.477884852141498	0.7722636545375128	0.3217686871918206	1.469868608890293	0.7008833432547786	-0.06175391627303861	1.1956327866585037	0.9710608456518812	-0.23445619192890385	1.0836277432391914	0.8523127346328669	-0.16888258953859894	1.3218912668990148	0.7817108803730848	-0.11164545628072717	1.3969968987958012	0.843355222294657	-0.11842226384523344	1.428191814385802	0.845539907436212	-0.184513370939008	1.4312908571197638	0.7908298061011674	
54	0.9152542372881356	0.22816463473785675	0.7256868848344882	0.8829760814026838	0.24045057653594404	0.28321800025468546	0.8165941796222196	0.27119230015139817	-0.24713252764639182	0.8479570628232668	0.2126457378780104	-0.21376320033445315	0.6147410713955129	0.28646693954311003	-0.2456849808967053	0.67022598568131	0.27895708230443217	-0.35049327657608503	0.9033048500739329	0.0036934987497997153	0.7025746944271849	0.9092038167693149	0.0467725376581618	0.23295545484060964	0.8652975278733672	0.0912535193099785	-0.25411841171950295	0.8512616172025282	0.10875150013675974	-0.23311400207832939	0.6473948546287923	0.055572649267101336	-0.2607488156042911	0.6979861572916672	0.10951395454747921	-0.3488321200584743	0.9046208900076718	0.09350426509454915	1.2320027903984694	1.0104386563815568	0.0687720404442855	1.479511406526798	0.9584917582144218	0.06473852315960164	1.358504678770119	0.8827348189320889	0.24303848699009178	1.198602080779304	0.9466641261833948	0.3888314606493502	1.1144790687497064	0.7846987362659846	0.2963154398965443	1.322416437208818	0.7379124192145895	0.24196767029388389	1.4187544584838627	0.7933905476529495	0.2707733384861136	1.4667042504781802	0.7654648980994814	0.32391931815629915	1.4597672240502046	0.6963389828961475	-0.061415127009156995	1.1944850455098937	0.9700939859733864	-0.23315253589197493	1.0744075979703607	0.851901549303075	-0.16785141709946536	1.3116798441139663	0.7788926855230973	-0.11157809939996113	1.3830752071175039	0.841193362440426	-0.11697075654603212	1.418082898484973	0.8411993020537858	-0.18327900110565912	1.422612620816458	0.7859451931513053	
55	0.9322033898305084	0.2284795879195193	0.7243560715215847	0.8847444939860898	0.2403578560073601	0.2827386586133589	0.8159011039602818	0.2711974213415943	-0.24704790177512126	0.8478788404770615	0.21337645952873324	-0.21422293255736	0.6165763127344579	0.2870503400594472	-0.24728502746932032	0.6721908077021147	0.2788082788344464	-0.35017140374882605	0.9035540890718564	0.003882441832905107	0.7019333585743784	0.9095007728649412	0.04680216916457739	0.23211870201672408	0.8650730049460211	0.09118618042025	-0.2538682344504526	0.8512352938286684	0.10855417422755154	-0.23320478394571528	0.6472812836670533	0.05546676195474899	-0.2616075140753385	0.6981838651889896	0.10899936482771037	-0.3480511787322759	0.9037098104395168	0.09342915746064195	1.2334264103907469	1.0077028259448508	0.06942154332872393	1.479558995226725	0.95765485538521	0.06488458539406099	1.3586381100932652	0.8827715872533979	0.24306767855957712	1.1981682411950692	0.9466304350306156	0.3912558492132454	1.1020729033161163	0.7867413273725479	0.29790043875511013	1.313047819294865	0.7333418853640812	0.24473550291166482	1.4098701761083405	0.7782161143646393	0.2711429338283693	1.4554002037834257	0.7584642102219996	0.3245921023184485	1.4474696992211669	0.6935064477852678	-0.06089680141381728	1.1929575782893753	0.9698524331241594	-0.23176737443731532	1.0678240332320486	0.8507039085711676	-0.16700268685652292	1.3003489740014638	0.7764066103077052	-0.1112770935785583	1.3686299006321885	0.8376208661901581	-0.11502981921306997	1.4080589795839273	0.8344427623006598	-0.18137121234278622	1.4135257170193127	0.7816957280609744	
56	0.9491525423728814	0.22869663347738534	0.722919909396245	0.8864230202080181	0.240268731104828	0.282046606365291	0.8155879318712478	0.2712085010196054	-0.24694316378213138	0.8477853130480879	0.21468735442942202	-0.2149454853705846	0.6189608795056525	0.2883253450369428	-0.249263706347482	0.6749279155966211	0.2786319051107054	-0.34991499081837896	0.9040588122441231	0.003987235394860453	0.7012822936626233	0.9095357881220525	0.046825464413602566	0.23123778220746916	0.8647886940410716	0.09110444380019658	-0.25336799498362705	0.8512053773333651	0.1084166656982532	-0.23325212787272112	0.6470110610538758	0.05555845379694874	-0.2629428265134123	0.6982956430353993	0.108576573697363	-0.34727267599406075	0.90293764547868	0.0934838931590258	1.2348688698186667	1.00524977490922	0.06947127146038345	1.4797689076656426	0.956551385033447	0.06497980459510239	1.3587237127191434	0.8827740044594293	0.24314713182476808	1.1973261962202597	0.9465533366979121	0.3938175486581307	1.0900679557833277	0.7887760165293656	0.29976267345161633	1.3038256648352937	0.7289457864749136	0.24822852071522644	1.400832680857279	0.7651663749849523	0.2718930403569664	1.4444027840865317	0.7519691783218021	0.3240187209918554	1.4340308349014912	0.6911820119902283	-0.060243847177721466	1.1913009203695297	0.9710636849115775	-0.2302328418745967	1.0627617851792586	0.8496156535123978	-0.16648403243643872	1.2887368413215916	0.77459096321702	-0.11076306005244688	1.3545953527320873	0.8336875923251689	-0.11303654585485784	1.3982577776574598	0.8252019814369517	-0.1788493020525942	1.4041943778278758	0.7767077985551474	
57	0.9661016949152542	0.2288922636695504	0.7213528775473244	0.8880712344897169	0.2402090106714939	0.2811642646253724	0.8157280461170993	0.2712139926899731	-0.2469073347786815	0.8477849172390535	0.21623570112844415	-0.21573448739431278	0.6216400898823898	0.28986532398173953	-0.2510193465391605	0.6779469506474299	0.278430396489298	-0.34968480268946234	0.9047761268881854	0.004006098207483301	0.7006606726546872	0.9093028247359399	0.0468096283256381	0.23037511719184622	0.8643772437289663	0.09101164240585796	-0.25265504905177893	0.8511727751624442	0.10837717158348678	-0.23325764063016394	0.6467545125909969	0.055785044316328934	-0.2642618574728089	0.6982148445457177	0.10827587941707195	-0.3465251192900926	0.9023089438318819	0.09360625295236027	1.23594133128594	1.0037527713610108	0.06912124060117755	1.4801192199898985	0.9552089141147087	0.0651249606776409	1.3586259826989624	0.8826997425051162	0.24327498973709355	1.196194522850134	0.9464695627266944	0.39606943481183043	1.0791813474084866	0.7913570932914316	0.30167762617571725	1.2947840293558712	0.7249670261666394	0.25214472701134644	1.3918229433217002	0.7553808147626278	0.2730398231924979	1.4340047929646969	0.7463261927401669	0.32278530855393717	1.4206725595823662	0.6880161529545816	-0.05948681934705119	1.1898464641840527	0.9738958137553679	-0.22850244610395476	1.057244060944941	0.8493832571063518	-0.1662692489222638	1.277260704639209	0.7737562577549454	-0.11010383475717814	1.3414705299078986	0.830692401280583	-0.11199975245603423	1.3887484844131965	0.8136744199910839	-0.17587133440623748	1.39454872188568	0.7695264004467911	
58	0.9830508474576272	0.22920499462626376	0.7196989663885115	0.8898558062251762	0.24017312637851923	0.2801847976443527	0.816285821566415	0.27121387928841656	-0.2469323328883606	0.8478661849139195	0.21768470540736795	-0.2164396828076698	0.6242467892865793	0.29108986047207425	-0.2519919825982361	0.6804624421652161	0.2782052150311585	-0.34947438641784395	0.905670951893717	0.003979503226239487	0.7000524184255882	0.9089122079744314	0.046711821629502985	0.22961947081779727	0.8637704696391033	0.09090719544744703	-0.2518088491710492	0.8511275113827188	0.10852243833272479	-0.23336817711100227	0.6469356240490804	0.05605218057971084	-0.26500615678587314	0.6979620599594635	0.10802271112543754	-0.34580321962047544	0.9017679533882642	0.09375682461030019	1.2363276013986129	1.0037290037276538	0.0687937730152221	1.4805985536268862	0.9535215149502398	0.06539733586484138	1.3583159498609174	0.8825398905711828	0.24344674293786772	1.1948893886437797	0.9464003067859726	0.3977190122797994	1.069730365196415	0.794523680343015	0.30357540701134167	1.285628482535125	0.7215544016604155	0.2563537792361509	1.3827116006054851	0.7495849631159264	0.27456913815989403	1.4242198453534842	0.7415574737019657	0.3217688797596202	1.4078607019913734	0.6831663444238698	-0.058623101518181106	1.1886332868077605	0.9779665420593389	-0.2266027691525491	1.0494740799643996	0.850136441233414	-0.16609719676716464	1.265752931639775	0.773756235520336	-0.1096426228195653	1.3294042166811812	0.8292960753364458	-0.11288379386907763	1.379633437664468	0.8002152693282372	-0.17270583439612608	1.3842360536481428	0.7597453078784899	
